<mxfile>
    <diagram id="a_5gWyuRde76PnMmGPOB" name="Page-1">
        <mxGraphModel dx="1824" dy="430" grid="1" gridSize="10" guides="1" tooltips="1" connect="1" arrows="1" fold="1" page="1" pageScale="1" pageWidth="850" pageHeight="1100" math="0" shadow="0">
            <root>
                <mxCell id="0"/>
                <mxCell id="1" parent="0"/>
                <mxCell id="2" value="" style="group" vertex="1" connectable="0" parent="1">
                    <mxGeometry x="20" y="180" width="140" height="230" as="geometry"/>
                </mxCell>
                <mxCell id="3" value="" style="whiteSpace=wrap;html=1;" vertex="1" parent="2">
                    <mxGeometry width="120" height="230" as="geometry"/>
                </mxCell>
                <mxCell id="26" value="com.example.myfirstapp.a1" style="text;html=1;align=center;verticalAlign=middle;resizable=0;points=[];autosize=1;" vertex="1" parent="2">
                    <mxGeometry x="-20" y="190" width="160" height="20" as="geometry"/>
                </mxCell>
                <mxCell id="5" value="" style="whiteSpace=wrap;html=1;" vertex="1" parent="1">
                    <mxGeometry x="170" y="180" width="120" height="230" as="geometry"/>
                </mxCell>
                <mxCell id="6" value="" style="rounded=0;whiteSpace=wrap;html=1;" vertex="1" parent="1">
                    <mxGeometry x="-100" y="190" width="410" height="60" as="geometry"/>
                </mxCell>
                <mxCell id="7" value="Start SingleTaskActivity" style="edgeStyle=orthogonalEdgeStyle;rounded=0;orthogonalLoop=1;jettySize=auto;html=1;entryX=0.5;entryY=0;entryDx=0;entryDy=0;" edge="1" parent="1" target="10">
                    <mxGeometry x="0.0455" relative="1" as="geometry">
                        <Array as="points">
                            <mxPoint x="80" y="100"/>
                            <mxPoint x="230" y="100"/>
                        </Array>
                        <mxPoint x="80" y="200" as="sourcePoint"/>
                        <mxPoint as="offset"/>
                    </mxGeometry>
                </mxCell>
                <mxCell id="9" value="Foregournd Activity" style="text;html=1;align=center;verticalAlign=middle;resizable=0;points=[];autosize=1;" vertex="1" parent="1">
                    <mxGeometry x="-90" y="210" width="120" height="20" as="geometry"/>
                </mxCell>
                <mxCell id="10" value="&lt;font style=&quot;font-size: 12px&quot;&gt;SingleTaskActivity&lt;/font&gt;" style="rounded=1;whiteSpace=wrap;html=1;" vertex="1" parent="1">
                    <mxGeometry x="180" y="200" width="100" height="40" as="geometry"/>
                </mxCell>
                <mxCell id="11" value="com.example.myfirstapp.a1" style="text;html=1;align=center;verticalAlign=middle;resizable=0;points=[];autosize=1;" vertex="1" parent="1">
                    <mxGeometry x="150" y="610" width="160" height="20" as="geometry"/>
                </mxCell>
                <mxCell id="12" value="" style="group" vertex="1" connectable="0" parent="1">
                    <mxGeometry x="20" y="430" width="140" height="210" as="geometry"/>
                </mxCell>
                <mxCell id="13" value="" style="endArrow=none;dashed=1;html=1;" edge="1" parent="12">
                    <mxGeometry width="50" height="50" relative="1" as="geometry">
                        <mxPoint x="119.99999999999999" y="210" as="sourcePoint"/>
                        <mxPoint as="targetPoint"/>
                        <Array as="points">
                            <mxPoint y="210"/>
                        </Array>
                    </mxGeometry>
                </mxCell>
                <mxCell id="14" value="" style="endArrow=none;dashed=1;html=1;" edge="1" parent="12">
                    <mxGeometry width="50" height="50" relative="1" as="geometry">
                        <mxPoint as="sourcePoint"/>
                        <mxPoint x="119.99999999999999" y="210" as="targetPoint"/>
                        <Array as="points">
                            <mxPoint x="119.99999999999999"/>
                        </Array>
                    </mxGeometry>
                </mxCell>
                <mxCell id="15" value="MainActivity" style="rounded=1;whiteSpace=wrap;html=1;" vertex="1" parent="12">
                    <mxGeometry x="10" y="30" width="100" height="40" as="geometry"/>
                </mxCell>
                <mxCell id="27" value="Default Task" style="text;html=1;align=center;verticalAlign=middle;resizable=0;points=[];autosize=1;" vertex="1" parent="12">
                    <mxGeometry x="20" y="180" width="80" height="20" as="geometry"/>
                </mxCell>
                <mxCell id="18" value="Background Task" style="ellipse;shape=cloud;whiteSpace=wrap;html=1;" vertex="1" parent="1">
                    <mxGeometry x="-120" y="460" width="120" height="80" as="geometry"/>
                </mxCell>
                <mxCell id="19" value="" style="endArrow=none;dashed=1;html=1;" edge="1" parent="1">
                    <mxGeometry x="170" y="430" width="50" height="50" as="geometry">
                        <mxPoint x="290" y="640" as="sourcePoint"/>
                        <mxPoint x="170" y="430" as="targetPoint"/>
                        <Array as="points">
                            <mxPoint x="170" y="640"/>
                        </Array>
                    </mxGeometry>
                </mxCell>
                <mxCell id="20" value="" style="endArrow=none;dashed=1;html=1;" edge="1" parent="1">
                    <mxGeometry x="170" y="430" width="50" height="50" as="geometry">
                        <mxPoint x="170" y="430" as="sourcePoint"/>
                        <mxPoint x="290" y="640" as="targetPoint"/>
                        <Array as="points">
                            <mxPoint x="290" y="430"/>
                        </Array>
                    </mxGeometry>
                </mxCell>
                <mxCell id="22" value="Default Task" style="text;html=1;align=center;verticalAlign=middle;resizable=0;points=[];autosize=1;" vertex="1" parent="1">
                    <mxGeometry x="190" y="370" width="80" height="20" as="geometry"/>
                </mxCell>
                <mxCell id="16" value="&lt;font style=&quot;font-size: 12px&quot;&gt;SingleTaskAffinity&lt;br&gt;Activity&lt;/font&gt;" style="rounded=1;whiteSpace=wrap;html=1;" vertex="1" parent="1">
                    <mxGeometry x="30" y="200" width="100" height="40" as="geometry"/>
                </mxCell>
                <mxCell id="28" value="MainActivity" style="rounded=1;whiteSpace=wrap;html=1;" vertex="1" parent="1">
                    <mxGeometry x="180" y="270" width="100" height="40" as="geometry"/>
                </mxCell>
                <mxCell id="29" value="&lt;font style=&quot;font-size: 12px&quot;&gt;SingleTaskAffinity&lt;br&gt;Activity&lt;/font&gt;" style="rounded=1;whiteSpace=wrap;html=1;" vertex="1" parent="1">
                    <mxGeometry x="180" y="460" width="100" height="40" as="geometry"/>
                </mxCell>
            </root>
        </mxGraphModel>
    </diagram>
</mxfile>